<?xml version="1.0" encoding="utf-8"?>
<!-- Generator: Adobe Illustrator 14.0.0, SVG Export Plug-In . SVG Version: 6.00 Build 43363)  -->
<!DOCTYPE svg PUBLIC "-//W3C//DTD SVG 1.1//EN" "http://www.w3.org/Graphics/SVG/1.1/DTD/svg11.dtd">
<svg version="1.1" id="Layer_1" xmlns="http://www.w3.org/2000/svg" xmlns:xlink="http://www.w3.org/1999/xlink" x="0px" y="0px"
	 width="267.105px" height="140.789px" viewBox="0 0 267.105 140.789" enable-background="new 0 0 267.105 140.789"
	 xml:space="preserve">
<g>
	<path d="M34.444,73.376c0.501,6.795,6.424,11.895,13.219,11.396c6.791-0.503,11.898-6.421,11.398-13.216
		c-0.504-6.8-6.423-11.896-13.219-11.401C39.049,60.657,33.943,66.576,34.444,73.376z"/>
	<path d="M57.799,65.934c0.503,6.791,6.423,11.9,13.217,11.397c6.793-0.5,11.902-6.421,11.396-13.212
		c-0.5-6.806-6.421-11.906-13.213-11.397C62.406,53.221,57.295,59.134,57.799,65.934z"/>
	<path d="M81.816,62.4c0.5,6.796,6.421,11.9,13.214,11.397c6.794-0.5,11.902-6.417,11.4-13.216
		c-0.501-6.796-6.423-11.9-13.214-11.397C86.419,49.687,81.315,55.605,81.816,62.4z"/>
	<path d="M105.859,59.219c0.501,6.792,6.421,11.896,13.214,11.397c6.792-0.503,11.903-6.421,11.401-13.216
		c-0.503-6.8-6.425-11.9-13.219-11.397C110.464,46.502,105.353,52.421,105.859,59.219z"/>
	<path d="M226.979,74.817c-1.129,6.723-7.499,11.253-14.217,10.127c-6.719-1.132-11.257-7.493-10.123-14.217
		c1.13-6.722,7.5-11.253,14.22-10.121C223.576,61.733,228.109,68.094,226.979,74.817z"/>
	<path d="M203.663,67.724c-1.122,6.724-7.494,11.259-14.213,10.127c-6.718-1.126-11.255-7.497-10.127-14.215
		c1.129-6.722,7.499-11.255,14.214-10.127C200.254,54.641,204.793,61.005,203.663,67.724z"/>
	<path d="M180.019,62.333c-1.126,6.718-7.498,11.253-14.213,10.121c-6.718-1.126-11.255-7.497-10.125-14.215
		c1.129-6.722,7.497-11.255,14.214-10.123C176.611,49.244,181.151,55.605,180.019,62.333z"/>
	<path d="M130.847,58.428c0.5,6.8,6.424,11.904,13.217,11.401c6.791-0.5,11.896-6.421,11.397-13.216
		c-0.504-6.796-6.424-11.9-13.217-11.397C135.454,45.715,130.343,51.633,130.847,58.428z"/>
	<path d="M145.633,98.319c-0.347,2.651,1.52,5.074,4.166,5.418c2.646,0.345,5.078-1.518,5.425-4.164
		c0.343-2.648-1.527-5.074-4.174-5.425C148.408,93.805,145.979,95.673,145.633,98.319z"/>
	<path d="M155.286,99.181c-0.344,2.646,1.525,5.078,4.173,5.423c2.646,0.345,5.074-1.523,5.418-4.17
		c0.347-2.652-1.52-5.074-4.174-5.419C158.062,94.67,155.632,96.533,155.286,99.181z"/>
	<path d="M135.707,97.977c-0.342,2.649,1.522,5.078,4.171,5.422c2.646,0.345,5.074-1.523,5.42-4.17
		c0.347-2.652-1.523-5.07-4.174-5.415C138.481,93.465,136.049,95.328,135.707,97.977z"/>
	<path d="M202.808,106.64c-0.359,2.643-2.798,4.496-5.444,4.139c-2.643-0.356-4.5-2.792-4.141-5.438
		c0.357-2.648,2.796-4.502,5.44-4.145C201.31,101.556,203.164,103.993,202.808,106.64z"/>
	<path d="M193.497,104.686c-0.354,2.646-2.796,4.502-5.438,4.145c-2.645-0.357-4.502-2.794-4.143-5.44
		c0.357-2.646,2.792-4.502,5.435-4.145C191.999,99.603,193.854,102.039,193.497,104.686z"/>
	<path d="M184.171,102.868c-0.357,2.643-2.796,4.502-5.438,4.145c-2.646-0.356-4.504-2.792-4.146-5.438
		c0.358-2.648,2.798-4.502,5.437-4.145C182.669,97.787,184.529,100.222,184.171,102.868z"/>
	<path d="M164.876,101.242c0.281,2.656,2.661,4.579,5.317,4.3c2.655-0.284,4.58-2.664,4.299-5.32
		c-0.284-2.655-2.668-4.578-5.321-4.3C166.517,96.203,164.592,98.587,164.876,101.242z"/>
	<path d="M116.317,98.432c0.333,2.65-1.547,5.069-4.197,5.401c-2.646,0.335-5.069-1.544-5.4-4.192
		c-0.33-2.656,1.549-5.069,4.196-5.404C113.565,93.908,115.986,95.785,116.317,98.432z"/>
	<path d="M106.656,99.249c0.333,2.651-1.546,5.07-4.197,5.402c-2.646,0.335-5.065-1.546-5.399-4.196
		c-0.333-2.652,1.547-5.067,4.199-5.402C103.903,94.727,106.324,96.602,106.656,99.249z"/>
	<path d="M126.242,98.144c0.332,2.646-1.547,5.065-4.194,5.397c-2.649,0.33-5.07-1.55-5.401-4.197
		c-0.333-2.65,1.549-5.065,4.199-5.397C123.49,93.616,125.913,95.492,126.242,98.144z"/>
	<path d="M135.59,97.962c0.335,2.648-1.546,5.07-4.193,5.396c-2.651,0.338-5.067-1.544-5.401-4.19
		c-0.333-2.651,1.547-5.07,4.196-5.402C132.838,93.435,135.26,95.315,135.59,97.962z"/>
	<path d="M59.099,106.476c0.349,2.646,2.776,4.511,5.422,4.166c2.647-0.344,4.518-2.769,4.168-5.415
		c-0.344-2.649-2.773-4.519-5.418-4.17C60.625,101.401,58.759,103.829,59.099,106.476z"/>
	<path d="M68.419,104.565c0.342,2.646,2.773,4.519,5.42,4.174c2.646-0.345,4.515-2.776,4.17-5.423
		c-0.345-2.646-2.771-4.511-5.419-4.166C69.944,99.494,68.074,101.917,68.419,104.565z"/>
	<path d="M77.757,102.796c0.344,2.646,2.774,4.515,5.417,4.17c2.648-0.345,4.515-2.771,4.17-5.423
		c-0.34-2.646-2.774-4.511-5.42-4.166C79.281,97.721,77.411,100.149,77.757,102.796z"/>
	<path d="M97.06,101.265c-0.295,2.653-2.688,4.565-5.341,4.272c-2.651-0.298-4.568-2.686-4.271-5.341
		c0.295-2.655,2.688-4.565,5.341-4.274C95.44,96.22,97.357,98.608,97.06,101.265z"/>
	<path d="M198.689,94.743c0.217-2.947,2.787-5.16,5.736-4.945c0.563,0.044,1.09,0.193,1.591,0.396
		c0.771-2.384,1.523-4.812,2.135-6.988c-48.305-15.596-77.612-13.509-77.612-13.509s-27.969-1.843-76.383,13.406
		c0.607,2.226,1.362,4.714,2.13,7.145c0.889-0.957,2.115-1.602,3.521-1.704c2.946-0.221,5.518,1.996,5.732,4.945
		c0.218,2.952-1.999,5.517-4.947,5.735c-0.474,0.035-0.928-0.013-1.373-0.098c0.683,1.992,1.138,3.278,1.138,3.278
		c30.047-10.681,107.714-11.043,141.454,0.057c0,0,0.299-0.825,0.773-2.165C200.18,99.624,198.498,97.335,198.689,94.743z
		 M67.067,93.899l-1.539-5.547l8.659-2.402l1.54,5.543L67.067,93.899z M82.526,92.032c-2.948,0.216-5.517-1.997-5.732-4.944
		c-0.22-2.953,1.995-5.52,4.947-5.741c2.948-0.212,5.514,1.995,5.735,4.944C87.693,89.244,85.475,91.813,82.526,92.032z
		 M89.738,88.799l-1.165-6.415l10.021-1.817l1.165,6.417L89.738,88.799z M106.616,88.435c-2.945,0.219-5.515-1.997-5.732-4.944
		c-0.218-2.949,1.995-5.52,4.945-5.738c2.95-0.215,5.517,1.998,5.735,4.945C111.784,85.649,109.566,88.22,106.616,88.435z
		 M113.165,85.555l-0.138-7.395l11.545-0.215l0.14,7.395L113.165,85.555z M133.449,87.323c-3.327,0.413-6.366-1.945-6.778-5.271
		c-0.416-3.332,1.943-6.365,5.271-6.782c3.331-0.414,6.368,1.945,6.779,5.274C139.141,83.872,136.775,86.905,133.449,87.323z
		 M151.065,85.946l-10.174-0.736l0.474-6.507l10.172,0.736L151.065,85.946z M157.612,89.69c-2.949-0.211-5.166-2.779-4.95-5.732
		c0.219-2.949,2.788-5.165,5.735-4.944c2.953,0.219,5.164,2.785,4.949,5.732C163.129,87.692,160.557,89.911,157.612,89.69z
		 M174.493,90.057l-10.021-1.812l1.163-6.418l10.021,1.817L174.493,90.057z M181.702,93.288c-2.951-0.215-5.163-2.785-4.946-5.731
		c0.217-2.953,2.783-5.166,5.735-4.949c2.949,0.219,5.164,2.783,4.947,5.736C187.217,91.291,184.649,93.509,181.702,93.288z
		 M188.502,92.755l1.542-5.547l8.655,2.406l-1.536,5.542L188.502,92.755z"/>
</g>
</svg>
